<?xml version="1.0" standalone="no"?>
<!DOCTYPE svg PUBLIC "-//W3C//DTD SVG 20010904//EN"
 "http://www.w3.org/TR/2001/REC-SVG-20010904/DTD/svg10.dtd">
<svg version="1.0" xmlns="http://www.w3.org/2000/svg"
 width="260.000000pt" height="260.000000pt" viewBox="0 0 260.000000 260.000000"
 preserveAspectRatio="xMidYMid meet">
<metadata>
Created by potrace 1.11, written by Peter Selinger 2001-2013
</metadata>
<g transform="translate(0.000000,260.000000) scale(0.100000,-0.100000)"
fill="#000000" stroke="none">
<path d="M1478 2155 c-2 -1 -27 -6 -57 -9 -117 -14 -233 -80 -317 -180 -44
-52 -120 -179 -136 -226 -3 -11 -10 -10 -32 7 -34 27 -120 56 -166 56 -177 0
-315 -125 -327 -297 -6 -82 -6 -82 -49 -91 -114 -21 -265 -146 -321 -265 -51
-109 -65 -230 -38 -335 45 -176 159 -301 335 -368 54 -20 70 -21 904 -23 504
-1 865 3 890 8 23 5 50 11 61 14 48 10 152 74 205 126 178 179 198 463 45 662
-20 27 -51 61 -68 75 -46 40 -137 90 -184 102 -40 11 -43 14 -44 48 -5 372
-187 619 -504 687 -24 6 -193 13 -197 9z"/>
</g>
</svg>
